PathFileType	4	(X/Y/Z)	./resultDataOpenSim/trcMotMarkerGrf/sub09/qtm-01-01.trc
DataRate	CameraRate	NumFrames	NumMarkers	Units	OrigDataRate	OrigDataStartFrame	OrigNumFrames
250.000000	250.000000	8	24	m	250.000000	184	488
Frame#	Time	L.Toe.Tip			R.Toe.Tip			L.Ankle.Lat			R.Ankle.Lat			L.Ankle.Med			R.Ankle.Med			L.Heel			R.Heel			L.Knee.Lat			R.Knee.Lat			L.Knee.Med			R.Knee.Med			L.Thigh.Upper			R.Thigh.Upper			L.ASIS			R.ASIS			V.Sacral			L.Acromium			R.Acromium			C7			L.Elbow			R.Elbow			L.Wrist.Lat			R.Wrist.Lat
		X1	Y1	Z1	X2	Y2	Z2	X3	Y3	Z3	X4	Y4	Z4	X5	Y5	Z5	X6	Y6	Z6	X7	Y7	Z7	X8	Y8	Z8	X9	Y9	Z9	X10	Y10	Z10	X11	Y11	Z11	X12	Y12	Z12	X13	Y13	Z13	X14	Y14	Z14	X15	Y15	Z15	X16	Y16	Z16	X17	Y17	Z17	X18	Y18	Z18	X19	Y19	Z19	X20	Y20	Z20	X21	Y21	Z21	X22	Y22	Z22	X23	Y23	Z23	X24	Y24	Z24

184	0.732	0.14919195	0.040618923	0.026367003	-0.58970448	0.068098138	0.14601879	0.0013825163	0.072353513	-0.013994156	-0.62861886	0.21686585	0.19031549	0.019465576	0.092456883	0.082728947	-0.57935914	0.21761815	0.10455373	-0.071356654	0.037184219	0.031705993	-0.6701849	0.26050904	0.13086217	0.056665039	0.48083178	-0.069587747	-0.24013061	0.45481967	0.25402117	0.052338095	0.48227567	0.056876866	-0.23396699	0.42502928	0.12757186	-0.13548173	0.85464797	-0.11263463	-0.20776555	0.84404316	0.25531478	-0.076800554	0.94279446	-0.041114243	-0.095438977	0.93006307	0.19949376	-0.25194156	0.9853984	0.066386799	-0.10109042	1.3797785	-0.10172546	-0.1399137	1.4047366	0.2269864	-0.18836951	1.4420114	0.056377058	-0.24373339	1.0432349	-0.15694317	-0.25278171	1.0567153	0.31595141	-0.12252635	0.81034679	-0.20151161	-0.087235352	0.84009413	0.33518374
185	0.736	0.14917948	0.040566779	0.026525522	-0.58245324	0.070851413	0.14765698	0.0015812983	0.072335188	-0.013866859	-0.6186343	0.22092362	0.19054838	0.019573249	0.092387034	0.082801448	-0.56923123	0.22079618	0.10498824	-0.071410059	0.037178287	0.031758288	-0.65925867	0.26585711	0.13137794	0.060172997	0.480472	-0.069864717	-0.22786452	0.45473673	0.25375929	0.054841392	0.48201204	0.056783569	-0.22203635	0.42505071	0.12755643	-0.1293729	0.85541924	-0.11309247	-0.20177818	0.8447511	0.2548147	-0.07062805	0.9435198	-0.041576588	-0.089555588	0.93096935	0.19919764	-0.24567588	0.98650317	0.065829881	-0.094227691	1.3806628	-0.10189425	-0.13362343	1.405488	0.2268394	-0.18168245	1.4430236	0.056088987	-0.236704	1.0439988	-0.15778191	-0.24694303	1.0577357	0.31571639	-0.11440404	0.81139563	-0.20130804	-0.082611625	0.84023402	0.33507131
186	0.74	0.14914842	0.04052633	0.026654634	-0.57420734	0.073960207	0.14946083	0.0017106991	0.072297357	-0.013769596	-0.60843872	0.22503452	0.19066016	0.019661429	0.092314527	0.082861433	-0.55903525	0.22422617	0.10521934	-0.07147831	0.037171229	0.031801317	-0.64839065	0.27093656	0.13178882	0.06338633	0.48006657	-0.069985454	-0.21687517	0.45486552	0.25377065	0.05730813	0.4817894	0.056708009	-0.21018136	0.42524634	0.12735044	-0.12318564	0.85634055	-0.11362013	-0.19588053	0.84553253	0.25433675	-0.064553663	0.94424988	-0.042093284	-0.083740284	0.93193735	0.19894018	-0.23939689	0.98770853	0.065301937	-0.087386259	1.381599	-0.10204	-0.12739457	1.4063052	0.22669464	-0.17501839	1.4440742	0.055814701	-0.22967042	1.0448207	-0.15849345	-0.24110855	1.058811	0.31548542	-0.10627974	0.81250882	-0.20107668	-0.07802013	0.84042019	0.3349415
187	0.744	0.14909114	0.04050908	0.026695956	-0.56495517	0.077426705	0.15137975	0.0017884492	0.072238557	-0.013710279	-0.59804401	0.22926838	0.1906671	0.019724496	0.092246214	0.082899387	-0.54873327	0.22795216	0.10522449	-0.07155966	0.037165449	0.031822568	-0.63764811	0.27563566	0.13201289	0.066302491	0.47965714	-0.070043844	-0.2071544	0.45530565	0.25410309	0.059722349	0.48154982	0.056606808	-0.1983762	0.42562409	0.12698471	-0.11707975	0.85736277	-0.11418436	-0.19001291	0.84637904	0.25387229	-0.058601744	0.94498732	-0.042717045	-0.07797702	0.9329621	0.19870507	-0.23311363	0.98899114	0.064797412	-0.080561054	1.3825868	-0.10216015	-0.12120848	1.4071909	0.22654901	-0.16837779	1.4451653	0.05554967	-0.22264543	1.0456916	-0.15913248	-0.23528877	1.0599483	0.31525593	-0.098154369	0.81369377	-0.20081677	-0.073479868	0.84064299	0.33479146
188	0.748	0.14901035	0.040513575	0.026639444	-0.55478854	0.081171039	0.15337373	0.0018424755	0.072170422	-0.013677202	-0.58744346	0.23363188	0.19058312	0.019762881	0.092187358	0.082916981	-0.53828463	0.23191187	0.10503279	-0.071647723	0.037163468	0.031820222	-0.62703959	0.27987888	0.13204344	0.068994165	0.47926616	-0.07009081	-0.1981229	0.45603265	0.25462919	0.062074612	0.48126497	0.056482331	-0.18662912	0.42619459	0.12653652	-0.11130208	0.85842081	-0.11470509	-0.18413774	0.84728035	0.25341573	-0.052855786	0.94572485	-0.043165371	-0.072254531	0.93404045	0.19847718	-0.22686531	0.99033067	0.064321973	-0.073750431	1.3836267	-0.10225594	-0.11504931	1.408142	0.22640939	-0.16176461	1.4463005	0.05528915	-0.21563433	1.0466106	-0.15974122	-0.22949728	1.0611492	0.31502417	-0.090043108	0.81494743	-0.20053955	-0.069002441	0.84090372	0.33462486
189	0.752	0.14892402	0.04052335	0.026543323	-0.54385467	0.085082886	0.15545578	0.0018900821	0.072104548	-0.013657036	-0.57661166	0.23805635	0.19042383	0.019790138	0.092140937	0.082921345	-0.52769456	0.23595392	0.10471681	-0.071733899	0.037167098	0.031800676	-0.6164929	0.2837017	0.13193791	0.071550467	0.47890038	-0.070135598	-0.18887111	0.45688921	0.25509551	0.064380445	0.48094136	0.056347091	-0.17501748	0.42695215	0.1261279	-0.10590261	0.8594898	-0.1151662	-0.17823302	0.84822615	0.25297416	-0.047280721	0.94648291	-0.043195436	-0.066565455	0.93517064	0.19824474	-0.2206911	0.99171075	0.063890284	-0.066957547	1.3847205	-0.10233146	-0.10891095	1.4091535	0.22628132	-0.15518405	1.447485	0.055030311	-0.2086362	1.0475797	-0.16033907	-0.22375919	1.0624103	0.31478485	-0.081967731	0.81625991	-0.20026014	-0.064598103	0.84121079	0.33444636
190	0.756	0.14885048	0.040523286	0.026473804	-0.53228944	0.089089565	0.15767085	0.0019398882	0.072046344	-0.013642906	-0.56553881	0.2424225	0.19022632	0.019831528	0.09211019	0.082920178	-0.51695371	0.23989365	0.10435344	-0.0718124	0.037178966	0.031772468	-0.60589974	0.28728304	0.13178606	0.074005111	0.4785581	-0.070181872	-0.17863505	0.45765737	0.25524481	0.066671646	0.48061201	0.0562022	-0.16363889	0.42787763	0.12587145	-0.10061346	0.86060972	-0.11566796	-0.17227712	0.84921092	0.25256078	-0.041663052	0.94732865	-0.042958955	-0.06090213	0.93634769	0.19799711	-0.21462543	0.99312532	0.063525876	-0.060188328	1.3858678	-0.10238895	-0.10279671	1.4102238	0.22616497	-0.14864164	1.4487198	0.054777236	-0.20165006	1.0485985	-0.16093242	-0.21811112	1.0637269	0.31453471	-0.073940918	0.81762878	-0.19998336	-0.060305289	0.84156331	0.33425353
191	0.76	0.14879483	0.04051298	0.026446497	-0.5201843	0.093166218	0.16003243	0.00199494	0.071992331	-0.013637174	-0.55424702	0.24661745	0.19005532	0.019910017	0.092099758	0.082918242	-0.50599625	0.24358095	0.10399113	-0.071883338	0.037202291	0.031739623	-0.59516947	0.29084818	0.13161606	0.076318507	0.47823765	-0.070251565	-0.16707453	0.45813099	0.25489712	0.068967127	0.4803124	0.056047352	-0.1524721	0.42894757	0.12574643	-0.095206791	0.86183152	-0.11628361	-0.16625603	0.85022986	0.25218544	-0.035866145	0.94830601	-0.042780032	-0.055260448	0.93756493	0.19772374	-0.20872163	0.99458383	0.063264436	-0.053445511	1.3870659	-0.10242709	-0.096709817	1.4113559	0.22605749	-0.14214153	1.4499982	0.054537523	-0.19467718	1.0496676	-0.16151962	-0.21256427	1.0650954	0.31427225	-0.065941986	0.81906687	-0.19969252	-0.056189023	0.84195101	0.33403853
